<svg xmlns="http://www.w3.org/2000/svg" viewBox="0 0 250 250" height="250" width="250">
  
<g transform="matrix(0.625,0,0,0.625,0,0)"><g transform="matrix(2,0,0,2,0,0)"><g>
    <path d="M156.42,123.54a31,31,0,0,0-.88-7.33.19.19,0,0,0-.37.09,30.2,30.2,0,0,1,.87,7.24c0,11.46-7.54,25.1-18.8,27.29a12.46,12.46,0,0,0-6.78-8.74l-34.94-17A27.42,27.42,0,0,1,97,114.33a.19.19,0,0,0-.11-.24.19.19,0,0,0-.25.11,27.6,27.6,0,0,0-1.49,10.73L52,104a12.52,12.52,0,0,0-16.7,5.78l-2.82,5.82L29.15,114a4.56,4.56,0,0,0-6.09,2.11l-9.86,20.3a4.56,4.56,0,0,0,2.11,6.09l107.6,52.27a4.54,4.54,0,0,0,6.08-2.11l9.87-20.3a4.56,4.56,0,0,0-2.11-6.08l-3.34-1.63,2.83-5.82a12.41,12.41,0,0,0,1.07-7.59C148.75,149,156.42,135.15,156.42,123.54ZM15.47,142.12a4.19,4.19,0,0,1-1.93-5.59l9.86-20.3A4.18,4.18,0,0,1,29,114.3l7,3.41a4.17,4.17,0,0,1,1.93,5.58l-9.86,20.3a4.18,4.18,0,0,1-5.58,1.94Zm8.66,4.2a4.55,4.55,0,0,0,4.28-2.56l7-14.47,85.37,41.47-7,14.47a4.57,4.57,0,0,0,.64,5Zm112.45,20.26a4.17,4.17,0,0,1,1.94,5.58l-9.87,20.3a4.17,4.17,0,0,1-5.58,1.93l-7-3.41a4.18,4.18,0,0,1-1.93-5.58L124,165.1a4.18,4.18,0,0,1,5.59-1.93Zm-.68-8-2.83,5.82-3.34-1.62a4.55,4.55,0,0,0-6.09,2.1L121,170.42,35.61,129l2.66-5.49a4.56,4.56,0,0,0-2.1-6.09l-3.34-1.62,2.82-5.82a12.14,12.14,0,0,1,16.2-5.61l78.44,38.11A12.12,12.12,0,0,1,135.9,158.63Z" style="fill: #b87eff"></path>
    <path d="M107,66.81c5-3,5.18-4.38,4.19-4-1.52.51-2.62.8-3.65,1.06,4.35-4.13,3.81-5.51,3-4.85-1.44,1.12-3,2.33-4.29,3.31,4.4-5.18,4.06-7.43,3.31-6.59-1.19,1.33-3.06,3.52-4.51,5.06,3.17-5.08,2-4.91.73-3.37-1.49,1.81-4.66,5.52-4.83,5.9a5.53,5.53,0,0,0-.29,1.31c-2.92-3.21-3.6-2.27-2.92-1.32a19.1,19.1,0,0,1,2.6,5.4,20.54,20.54,0,0,1-.35,3.68c-.15.31-.8,1.52-1.65,3a11.85,11.85,0,0,0,6.8,3c.39-1.06.74-2.06,1-2.93,1.08-3.27,1.32-4,.78-5.93C106.48,68.07,106.06,67.36,107,66.81Z" style="fill: #ffffff"></path>
    <path d="M95,62.75s-1.68-6.82-1.49-10.17c.21-3.73-.8-2.48-1.27-1.21S90.93,56.21,90,54.89c-.37-.85-.69-1.47-.95-2a61.17,61.17,0,0,1-2-7.23c-.43-2.15-.93-1.81-1-1.47A13.76,13.76,0,0,0,85.92,48c-2.45-3.1-3.77-3.26-2,.22,2.32,4.61,4.25,10.08,4,15.22A11.77,11.77,0,0,0,95,62.75Z" style="fill: #ffffff"></path>
    <path d="M61.24,80.48,64.63,83l-4,.71C59.23,77.38,58.9,77.48,58.3,75c-2.4-.51-1.65-3.34,0-2.44.8.42,1.09.37,1.08-.14.23-4.21,3.39-5.53,5.73-1.38S68.77,83.39,61.24,80.48Z" style="fill: #ffffff"></path>
    <path d="M187.15,167.87a1.33,1.33,0,0,0-.69-1.75l-10.34-4.56a9.27,9.27,0,0,1-4.83-4.89c0-.11-4.09-9.66-3.84-9.06a1,1,0,0,0-1.28-.53l-7.76,3.09a1,1,0,0,0-.54,1.31c.54,1.31-2-4.73,5.33,12.74a11,11,0,0,0,6.55,6.14l6.51,2.24a8.75,8.75,0,0,0,10.88-4.69S187.15,167.89,187.15,167.87Zm-28.6-17.35,7.76-3.1a.61.61,0,0,1,.79.34l2.89,6.81-8.92,3.59-2.86-6.83A.62.62,0,0,1,158.55,150.52Zm17.84,21.73L169.87,170a10.59,10.59,0,0,1-6.32-5.92l-2.33-5.57,8.92-3.59.8,1.89a9.66,9.66,0,0,0,5,5.1l10.35,4.56a1,1,0,0,1,.49,1.26s0,0,0,0A8.38,8.38,0,0,1,176.39,172.25Z" style="fill: #b87eff"></path>
    <path d="M99.05,108.18a.93.93,0,0,1-1.85,0A.93.93,0,0,1,99.05,108.18Z" style="fill: #a310ff"></path>
    <path d="M112.94,97.91a.93.93,0,0,1-1.85,0A.93.93,0,0,1,112.94,97.91Z" style="fill: #a310ff"></path>
    <path d="M129.53,103.77a.93.93,0,0,1-1.85,0A.93.93,0,0,1,129.53,103.77Z" style="fill: #a310ff"></path>
    <path d="M147.13,98.84a.93.93,0,0,1-1.85,0A.93.93,0,0,1,147.13,98.84Z" style="fill: #a310ff"></path>
    <path d="M156.94,112.49a.93.93,0,0,1-1.86,0A.93.93,0,0,1,156.94,112.49Z" style="fill: #a310ff"></path>
    <path d="M109.1,88.72a.93.93,0,0,1-1.86,0A.93.93,0,0,1,109.1,88.72Z" style="fill: #a310ff"></path>
    <path d="M126,84.76a.93.93,0,0,1-1.85,0A.93.93,0,0,1,126,84.76Z" style="fill: #a310ff"></path>
    <path d="M129.53,69.43a.93.93,0,0,1-1.85,0A.93.93,0,0,1,129.53,69.43Z" style="fill: #a310ff"></path>
    <path d="M147.13,64.65a.93.93,0,0,1-1.85,0A.93.93,0,0,1,147.13,64.65Z" style="fill: #a310ff"></path>
    <path d="M151.5,48.39a.93.93,0,0,1-1.86,0A.93.93,0,0,1,151.5,48.39Z" style="fill: #a310ff"></path>
    <path d="M174.59,71.24l-4.66.73-.74-4.67a.19.19,0,1,0-.37.06l.73,4.67-4.67.73a.19.19,0,1,0,.06.37l4.67-.73.73,4.67a.19.19,0,0,0,.38-.06L170,72.34l4.67-.73A.19.19,0,1,0,174.59,71.24Z" style="fill: #b87eff"></path>
    <path d="M49.43,26a8.31,8.31,0,0,0-1.18-4.35,8.27,8.27,0,0,0-3.61-3,.19.19,0,0,0-.26.16,8.47,8.47,0,0,0,1.19,4.53,8.16,8.16,0,0,0,3,2.69,6.42,6.42,0,1,0,.89,0Zm-4.67-6.88a7.25,7.25,0,0,1,4.29,6.76A7.25,7.25,0,0,1,44.76,19.13Zm4.49,19.38a6.06,6.06,0,1,1,6.06-6.06A6.07,6.07,0,0,1,49.25,38.51Z" style="fill: #b87eff"></path>
    <path d="M185.13,116c0-.48-.91-1.29-7-3.62-3.53-1.34-9.69-4.31-12.88-5.9a17.75,17.75,0,0,0,.32-2.87.21.21,0,0,0-.1-.17,158.65,158.65,0,0,0-32.3-12.91,16.74,16.74,0,0,0-7.11-.43,457.93,457.93,0,0,0,35.7-36,.2.2,0,0,0,0-.22c-.59-1-1.2-2-1.84-2.86,2.14-2.93,5.65-5.59,6.24-7.55a8.23,8.23,0,0,0,.25-3.24c-.43-4.56,3.62-13.66.85-14-.48,0-1.46.63-5,6.07-1.81,2.79-6,8.25-9.16,12.13a19.06,19.06,0,0,0-3.51-1.73.19.19,0,0,0-.21,0,434.47,434.47,0,0,1-46.59,45.39c1.28-2.63,2.73-6,4.55-10.31,0-.1.9-1-1-2.73,1.11-3.38,1.2-3.87.46-6.29-.34-1.13-.42-1.5.2-1.88,5.93-3.54,5-4.71,4-4.38-1.2.4-2.14.67-3,.89,4.45-4.34,3.15-5.36,2.23-4.65l-3,2.38c3.91-5,2.83-6.52,2-5.64l-3.25,3.69a10.57,10.57,0,0,0,1.1-2.33c.17-.67-.27-.83-.73-.53a15.29,15.29,0,0,0-2.4,2.66c-2,2.33-3.24,3.88-3.37,4.16a5,5,0,0,0-.24,1c-1.51-1.61-2.59-2.28-3.06-1.9-.25.21-.21.65.12,1.1a18.88,18.88,0,0,1,2.56,5.32,27.43,27.43,0,0,1-.3,3.48,2.79,2.79,0,0,0-2.53.7l-.65-11.65c-.06-.1.2-1.2-2.07-1.88a31.46,31.46,0,0,1-.8-6.8c.13-2.25-.2-2.61-.49-2.67-.53-.11-1,1-1.14,1.38-.36,1-1.06,3.61-1.64,3.7-.11,0-.21-.09-.28-.19-1.37-3.11-.71-.74-2.18-6.08-.75-2.75-.88-4.94-1.68-4.95a.46.46,0,0,0-.43.39,13,13,0,0,0-.18,3.27c-.51-.6-2-2.32-2.59-1.91-1.21.82,3.21,5.65,4.33,14.14-2.41.9-2.17,2-2.17,2.11L86.35,80,72.57,84.17a2.85,2.85,0,0,0-.25-1.48,3.09,3.09,0,0,0,3-2.64,3.05,3.05,0,0,0-1.27-2.93,3.06,3.06,0,0,0,.11-5.83,3.06,3.06,0,0,0-2-5.38,3.07,3.07,0,0,0-3.72-4.32,3.07,3.07,0,0,0-5.11-2.69,3.19,3.19,0,0,0-6-.95,3.07,3.07,0,0,0-5.71,1,3.06,3.06,0,0,0-4.87,2.93,3.07,3.07,0,0,0-3.54,4.5,3.08,3.08,0,0,0-3,2.64,3,3,0,0,0,1.28,2.93,3.07,3.07,0,0,0-.07,5.84,3.06,3.06,0,0,0,2,5.36,3.07,3.07,0,0,0,3.75,4.29,3.06,3.06,0,0,0,5.13,2.66,3.06,3.06,0,0,0,5.77.92,3.06,3.06,0,0,0,4.49,1,22.5,22.5,0,0,0,2.27,4.73c5.65,8.68,13.22,13,24.26,12.59.57.87,3.69,5,10.73,5.69,7.32.7,27.58-7.53,29.07-8.15a155,155,0,0,1,29.93,11.29.17.17,0,0,0,.22,0c.67-.81,1.34-1.66,2-2.56,5.16,2.5,6.41,3.76,10.2,2.56C175.69,116.72,185.41,118.8,185.13,116ZM97.83,63.2c-.21-.3-.23-.54-.18-.59s.88,0,2.75,2.08c-.12.86-.19,1.94-.25,3A18.79,18.79,0,0,0,97.83,63.2Zm2.34,9c.34-1.41.3-7.52.89-8.85.15-.34,3.54-4.32,4.81-5.86a2.9,2.9,0,0,1,1-.88c0,.16-.08,1-2,4-.49.53-.94,1-1.28,1.29-.18.17.07.45.25.28,1.37-1.23,4.24-4.62,5.83-6.39.06-.07.1-.1.1-.12.17.29-.27,2.43-3.68,6.44-.37.28-.73.53-1.07.76a.19.19,0,0,0,.21.31c2.52-1.68,5.56-4.39,5.69-4.21s-.09,1.45-3.51,4.66L106.3,64a.19.19,0,0,0,.09.37c4.71-1.18,4.82-1.43,5.07-1.41.06.17-.59,1.37-4.57,3.75-.91.54-.7,1.24-.37,2.31.94,3.07.4,3.33-1.57,9.24a11.79,11.79,0,0,1-6.46-2.85C100.2,72.37,100.12,72.47,100.17,72.25Zm6.61,6.12c-.55,1.31-1.07,2.52-1.56,3.65a12.61,12.61,0,0,1-9.7-4.24c.69-1.46,1.26-2.78,1.62-3.65C98,76.69,104.29,79.49,106.78,78.37ZM86.26,44.25c0-.2.17,0,.27.13.33.62.66,3.07,1.79,7a30.6,30.6,0,0,0-2.2-3.4A14.47,14.47,0,0,1,86.26,44.25Zm-2.17,3.89c-.84-1.66-.82-2.23-.75-2.3s.36-.11,1.8,1.51a26.1,26.1,0,0,1,2.92,4.27,28.17,28.17,0,0,1,2.53,5.13.19.19,0,0,0,.35-.14c-.18-.46-.35-.86-.51-1.23,1,0,1.64-2.87,2-4,.28-.75.61-1.14.71-1.14s.31.15.19,2.28c-.14,2.62.91,7.54,1.49,10.06A11.66,11.66,0,0,1,88,63.3C88.18,58.16,86.4,52.76,84.09,48.14Zm1.63,14.49c1.93,1.95,8.85,1.56,10.55-.58l.19,3.39a12.91,12.91,0,0,1-10.55.38Zm.65,17.74.14,2.31a.19.19,0,0,0,.38,0c-.35-6-.6-10.16-1-16.43a13.29,13.29,0,0,0,10.56-.38l.44,7.82C95.93,76.1,92.54,84,89.63,86s-15.81,0-19.33-.71ZM58.48,74.92a.19.19,0,0,0-.15-.14c-2.09-.45-1.53-2.86-.1-2.1.58.31.91.38,1.13.25a.59.59,0,0,0,.23-.54c.22-4.08,3.16-5.23,5.37-1.29,1.45,2.58,2.61,7.15,1,9-.87,1-2.43,1.07-4.66.21a.19.19,0,0,0-.19.32l3.05,2.29-3.43.6C59.24,76.82,59,77.25,58.48,74.92Zm6.75,21.61c-2.32-3.57-3.45-8.39-4.41-12.64l3.71-.65a16.81,16.81,0,0,0,1.23,1.85,5.56,5.56,0,0,0-2.09,1,.19.19,0,0,0,.23.3c2-1.55,4.22-1.23,6.68-.71,3.71.7,16.14,2.71,19.26.57,1.9-1.3,4-5,5.5-8.12a13,13,0,0,0,9.72,4.25c-5.72,13.16-7.49,14.56-14,15.15A85.42,85.42,0,0,1,70.64,97a.19.19,0,1,0,0,.37,79.33,79.33,0,0,0,9,1l10.81,2.29c-.31,3.28-1.12,7.48-1.28,8.32C78.69,109.27,71.2,105.71,65.23,96.53Zm93.7,21.22A155.83,155.83,0,0,0,129,106.49a.25.25,0,0,0-.12,0c-.22.09-21.62,8.83-28.95,8.14-7-.67-10-4.88-10.49-5.56a65.43,65.43,0,0,0,1.42-11.14c5.67-.49,8-1.84,11.56-8.9a434.2,434.2,0,0,0,47.2-45.87C154.3,45,158.27,48.59,161.41,54a455.54,455.54,0,0,1-36,36.26c-.6.12-5.72,1.45-23,5.68a.19.19,0,0,0,.09.37l22.22-5.52a16.31,16.31,0,0,1,8.38.13,158.82,158.82,0,0,1,32.13,12.83C165,109.17,162.34,113.57,158.93,117.75Z" style="fill: #a310ff"></path>
    <path d="M27.05,91.45l-2.44.43a2.15,2.15,0,0,1-2.48-1.74L21.7,87.7a.19.19,0,0,0-.37.07l.43,2.44A2.14,2.14,0,0,1,20,92.69l-2.44.43a.19.19,0,0,0,.07.37l2.44-.43a2.15,2.15,0,0,1,2.48,1.74L23,97.24a.19.19,0,0,0,.37-.07l-.43-2.44a2.16,2.16,0,0,1,1.74-2.48l2.44-.43A.19.19,0,0,0,27.05,91.45Zm-4.46,2.37A2.54,2.54,0,0,0,21,92.71a2.51,2.51,0,0,0,1.11-1.59,2.54,2.54,0,0,0,1.59,1.11A2.54,2.54,0,0,0,22.59,93.82Z" style="fill: #b87eff"></path>
    <polygon points="121.15 5.64 120.94 24.35 132.55 44.45 132.76 25.74 121.15 5.64" style="fill: #b87eff"></polygon>
    <polygon points="119.12 39.41 117.39 60.36 132.27 45.46 125.25 33.3 119.12 39.41" style="fill: #b87eff"></polygon>
  </g></g></g></svg>