<svg xmlns="http://www.w3.org/2000/svg" viewBox="0 0 250 250" height="250" width="250">
  
<g transform="matrix(0.625,0,0,0.625,0,0)"><g transform="matrix(2,0,0,2,0,0)"><g>
    <path d="M174,66.41a52.51,52.51,0,0,0-26.51-12.25.19.19,0,1,1,0-.37,52.9,52.9,0,0,1,26.71,12.33A.19.19,0,0,1,174,66.41Z" style="fill: #a310ff"></path>
    <path d="M107.69,136.17a.19.19,0,1,1,.13-.32A.19.19,0,0,1,107.69,136.17Z" style="fill: #a310ff"></path>
    <path d="M174,70.09a39.05,39.05,0,0,0,10.6-.58L184.37,59a34.31,34.31,0,0,1-10.52.19A69.71,69.71,0,0,1,174,70.09Z" style="fill: #ffffff"></path>
    <path d="M142.45,50.93a40.2,40.2,0,0,1-9.17,5.8c-1.68-3.31-3.89-7-6-10.6a34.08,34.08,0,0,1,9-5.76Z" style="fill: #ffffff"></path>
    <path d="M57.56,156.51l-.54.25c-3,.4-8.13,1-8.13,1,4-1.21,4.14-12.69,4.12-14.08-.06-5-1.4-6.69-2.11-7.19.76.13,2.52.3,3.74.4l0,.11a.19.19,0,0,0,.34-.16l-7.44-16A5.74,5.74,0,0,0,40,118.07L29.47,123c1.83-2.42,9-12.16,9.86-18.6C40.42,96.7,29,93.14,27.59,102.87c-1.11,7.93.36,16.75.92,19.62-1.7-2.39-7.07-9.52-13.59-14.16-8-5.71-13.29,5.06-7,9.54,5.34,3.79,17.43,5.33,20.34,5.65l-10.32,4.82A5.75,5.75,0,0,0,15.16,136l13.15,28.26A5.74,5.74,0,0,0,35.94,167l21.78-10.15A.19.19,0,0,0,57.56,156.51ZM28,102.93c1.3-9.23,12-5.79,11,1.38C38,110.89,30.46,121,29,123,28.57,120.93,26.77,111.41,28,102.93ZM8.14,117.56c-5.89-4.19-1-14.34,6.57-8.92,7,5,12.64,12.83,13.82,14.53C26.12,122.92,13.56,121.41,8.14,117.56Zm36.13,45.15-17.68-38,5.05-2.36,17.69,38Z" style="fill: #a310ff"></path>
    <path d="M86.5,108.45c3.13-3,.46-5.9-1-3.73-.7,1-1.09,1-1.32.42-1-3.44-5.93-8.37-7.24,1.14-1.22,8.79,2.68,9,5.72,7.74.08.26,1.41,5.82,2.53,7.45a28.74,28.74,0,0,0,3.08-6.63C86,111.94,86.11,108.83,86.5,108.45Z" style="fill: #ffffff"></path>
    <path d="M113.23,122.43c-2-3.65-7.9-13-11.48-11.32-1.51.71-2,3.31-1.3,7.33a.19.19,0,0,0,.2.15,43.08,43.08,0,0,0,8.77-1.59,55.25,55.25,0,0,1,7.41,14.79,21.6,21.6,0,0,1-8.94,4.16l0-.06a.19.19,0,1,0-.32.19c1.87,3,6.7,9.66,9.71,8.26,1.92-.9,1.75-4.5,1.18-7.65A49.23,49.23,0,0,0,113.23,122.43Z" style="fill: #a310ff"></path>
    <path d="M160.71,155A53.15,53.15,0,0,0,188,84.64a.19.19,0,1,0-.34.15,52.8,52.8,0,0,1-27.11,69.84c-32.95-71.11-41.2-89-43.42-93.69a20.61,20.61,0,0,0-1-1.94,52.31,52.31,0,0,1,14.68-4.73.2.2,0,0,0,.16-.22.19.19,0,0,0-.22-.15A52.56,52.56,0,0,0,116,58.68a13.2,13.2,0,0,0-9.46-5.94L55.75,46.2a12.24,12.24,0,0,0-8,1.74A12,12,0,0,0,43,53.51a4.76,4.76,0,0,0,.11,4.19l29.81,65.76a.19.19,0,0,0,.34-.16L43.41,57.54c-1.54-3.36.61-6.3,4.29-5.83l51.77,6.77a17.73,17.73,0,0,1,13.85,10.16C164.37,178.68,171,193.21,171.84,195c.17.34.47.1.38-.1L113.66,68.48A18.14,18.14,0,0,0,99.52,58.1L47.75,51.34a4.92,4.92,0,0,0-3.7.85A11.88,11.88,0,0,1,55.7,46.57l50.75,6.54A13.21,13.21,0,0,1,116,59.67c1.12,2.21,7.74,16.61,62.85,135.37a.19.19,0,1,0,.34-.16Z" style="fill: #a310ff"></path>
    <path d="M49.76,61.37c-1.23-2.64.38-4.94,2.49-3.65s2.64,4.81.88,5.63C51.87,63.94,50.41,62.77,49.76,61.37Zm.8-3.52c-1.49.69-.91,3.86.91,5A1.57,1.57,0,0,0,53,63c1.49-.69.92-3.86-.91-5A1.59,1.59,0,0,0,50.56,57.85Z" style="fill: #a310ff"></path>
    <path d="M29.89,70.44,24.58,72.9l-2.47-5.31a.19.19,0,1,0-.34.16l2.46,5.31-5.31,2.46a.19.19,0,0,0,.08.36c.08,0-.12.09,5.39-2.48l2.47,5.31a.19.19,0,0,0,.34-.15l-2.47-5.31,5.32-2.47A.19.19,0,0,0,29.89,70.44Z" style="fill: #a310ff"></path>
    <path d="M97.82,19.22l-3-5.5a.19.19,0,0,0-.24-.08l-11.5,4.82,10.22-7.14a.19.19,0,0,0,.06-.25l-3-5.5a1.46,1.46,0,0,0-2.37-.27L72.14,22.89a1.47,1.47,0,0,0,1.34,2.42l23.31-3.94A1.46,1.46,0,0,0,97.82,19.22ZM96.72,21,73.41,24.94a1.08,1.08,0,0,1-1-1.79L88.21,5.55a1.08,1.08,0,0,1,1.76.2l3,5.35-11.5,8a.19.19,0,0,0,.15.35l13-5.44,2.95,5.35A1.09,1.09,0,0,1,96.72,21Z" style="fill: #a310ff"></path>
    <path d="M174.33,161c-.22-.12,0-.46.18-.34,9,4.83,11-9.17,20.24-4.19a.19.19,0,1,1-.18.33C185.55,151.91,183.64,166,174.33,161Z" style="fill: #a310ff"></path>
    <path d="M33.78,138a39.71,39.71,0,0,1-4.73-2.94c-2-1.51-1.41-2.85.54-1.82a51.75,51.75,0,0,0,6,2.36,30.64,30.64,0,0,1-3.94-2.87c-1.88-1.66-1.15-2.73.78-1.67A39.38,39.38,0,0,0,41,134.82a18.07,18.07,0,0,1-2.31-4.67c-.4-1.81,1.11-1.26,3.87,1.75a16,16,0,0,0,8,4.53c1.74.31,2.8,5.13,2.37,10.91,0,.68-.12,1.34-.2,2-.53.18-9.87-2.39-15.36-4.53-2.21-.86-4.5-1.72-6.64-2.77s-2-2.15.05-1.65a30.23,30.23,0,0,0,3.11.47A38.78,38.78,0,0,1,29,138.65c-2.15-1.22-1.73-2.62.33-1.87A45.76,45.76,0,0,0,33.78,138Z" style="fill: #ffffff"></path>
    <path d="M101.59,185.87a10.27,10.27,0,0,0-8.48-18.7L84.56,148.3a.19.19,0,0,0-.35.16l8.55,18.86A10.27,10.27,0,0,0,101.24,186l4.11,9.05a.19.19,0,0,0,.34-.16Zm.91-17.54a9.9,9.9,0,0,1-1.07,17.2l-8.17-18A9.86,9.86,0,0,1,102.5,168.33Z" style="fill: #a310ff"></path>
    <path d="M116.77,131.61a21.1,21.1,0,0,1-21.15,2.9c0-5.56,0-5.34,0-5.44a.19.19,0,0,0-.36,0c-2.46,6.52-7,13.1-10.89,19A8.34,8.34,0,0,1,80,151.4a157.09,157.09,0,0,1-29.89,6.09c3.39-3.11,4.35-17.5,1.39-20.71a112.54,112.54,0,0,0,22.47.42.17.17,0,0,0,.13-.07c4.86-6.13,11.87-14.54,14.29-21.9a10.54,10.54,0,0,0,1.29,1.3c1.48,1.26,4.51,2.16,8.71,2.16A41,41,0,0,0,109.42,117l-.24-.32C98.8,119.58,92,118,89.87,116.24a10.11,10.11,0,0,1-2-2.27,3,3,0,0,0,4.25-2.2A3,3,0,0,0,97,108.91a3,3,0,0,0,3.51-4.4,3,3,0,0,0,3-2.6A3,3,0,0,0,102.19,99a3.05,3.05,0,0,0,2.12-2.47,3,3,0,0,0-2-3.27,3,3,0,0,0-1.92-5.3,3,3,0,0,0-3.66-4.25,3,3,0,0,0-5-2.65,3,3,0,0,0-2.57-2.56l-.19,0a3,3,0,0,0-3.12,1.65,3,3,0,0,0-5.61,1A3,3,0,0,0,75.38,84a3,3,0,0,0-3.47,4.43A3,3,0,0,0,69,91a3,3,0,0,0,1.26,2.89,3,3,0,0,0-.07,5.74,3,3,0,0,0,1.95,5.28,3,3,0,0,0,3.69,4.23,3,3,0,0,0,1,2.73c.76,2.91,2.94,3.5,5.69,2.39.11.47.41,1.61.82,3A87.6,87.6,0,0,1,62.2,127.6a96.93,96.93,0,0,1-11,1l.17.37a92.85,92.85,0,0,0,10.95-1A87.21,87.21,0,0,0,83.47,117.6,26.58,26.58,0,0,0,85,121.5c-3.07,5.27-7.4,10.58-11.19,15.33a111.35,111.35,0,0,1-22.8-.49,15.8,15.8,0,0,1-8.33-4.54c-1.44-1.57-3.3-3.32-4-2.79s.64,3.3,2,5.56A37.85,37.85,0,0,1,32.54,131c-2.09-1.16-3.1.12-1,2a25.49,25.49,0,0,0,2.66,2,43.8,43.8,0,0,1-4.52-1.84c-2.06-1.08-3,.41-.75,2.14a35.86,35.86,0,0,0,3.65,2.3c-1.41-.37-2.6-.75-3.16-.95-2.19-.79-2.93.83-.48,2.21a30.92,30.92,0,0,0,3.54,1.66c-.66-.09-1.19-.18-1.65-.29-1-.24-1.67-.13-1.82.28s.44,1.14,1.64,1.73a112.49,112.49,0,0,0,15.52,5.71c-.14,3.15.34,10.74,3.1,10a158.2,158.2,0,0,0,30.8-6.19,8.74,8.74,0,0,0,4.61-3.48,145.25,145.25,0,0,0,8.81-14.35,22.8,22.8,0,0,0,10.43,2.57,21.1,21.1,0,0,0,13-4.51C116.85,131.86,116.81,131.74,116.77,131.61ZM83.43,116.18l.93-2.91a.19.19,0,0,0-.29-.21c-1.44,1-3.89,1.91-5.43,1s-2-3.55-1.52-7.73,1.82-5.29,2.78-5.36c1.62-.12,3.52,2.19,4.1,4.25a.08.08,0,0,0,0,0c0,.12.21.47.54.5s.65-.25,1.1-.91c1.31-2,3.61.71.71,3.48a2.21,2.21,0,0,0-.31,1.39,9.44,9.44,0,0,0,2,5.17,32.32,32.32,0,0,1-2.84,6.24A32.56,32.56,0,0,1,83.43,116.18ZM30.82,141.87c-1.22-.6-1.51-1.11-1.45-1.26s.46-.26,1.38,0c.77.18,1.69.3,3.13.48.1,0,.79.31,2.16.75a.19.19,0,1,0,.11-.36,46,46,0,0,1-7-2.94c-1.15-.65-1.41-1.27-1.3-1.51s.61-.33,1.48,0a38.93,38.93,0,0,0,4.51,1.27c1.17.64,2.2,1.16,2.75,1.43.22.1.39-.24.16-.34A59.35,59.35,0,0,1,29.16,135c-1.08-.82-1.25-1.48-1.11-1.7s.64-.23,1.45.2a52.07,52.07,0,0,0,6,2.35c.77.48,1.4.83,1.71,1a.19.19,0,0,0,.26-.08.19.19,0,0,0-.08-.25,31.77,31.77,0,0,1-5.62-3.84c-1-.86-1.12-1.45-1-1.64s.72-.18,1.55.28a35.89,35.89,0,0,0,10.41,4.2.19.19,0,0,0,.08-.37c-.57-.12-1.11-.26-1.64-.4,0-.1-3-4.88-2.3-5.41.16-.12,1.11.13,3.5,2.74a16.3,16.3,0,0,0,8.3,4.63c1.54.56,2.45,5.23,2,10.67,0,.59-.1,1.19-.18,1.78C48.38,148.52,36.22,144.52,30.82,141.87Z" style="fill: #b87eff"></path>
    <path d="M161.66,48a2.17,2.17,0,1,1,3.05.39A2.18,2.18,0,0,1,161.66,48Zm.63-2.75a1.79,1.79,0,1,0,2.51.33A1.8,1.8,0,0,0,162.29,45.28Z" style="fill: #a310ff"></path>
    <path d="M187.27,68.13c0-.61-.85-1.13-2.52-1.54l-.23-9.12c3.88-12.71,4.26-18.57,3.62-26.18a.19.19,0,0,0-.31-.13c-4.64,4-13.19,17.42-14.83,22.53a.25.25,0,0,0,0,.08A65.92,65.92,0,0,1,173.94,66c-1.68.12-6.71.6-6.65,2.28.27,8,.87,26.17.91,28.87-1.39.24-5.5,1.16-10.26,2.26,7.58-11.83,6.12-14.9,3.7-19.93-3.28-6.86-13.47-25-17.26-31.18-.3-1-2.34-.41-3.31-.11l-4.63-7.95c-.72-9.87-1.42-15.59-4.7-25.23a.19.19,0,0,0-.34,0c-3.37,6-6.93,20-7.22,26.35a.14.14,0,0,0,0,.11c2.24,3.61,5.54,9.22,7,11.88-1.2.85-4.87,3.57-4.15,4.84,1.72,3,14.69,24.68,15.35,25.87-1.24,1-6.1,6.24-10,9.92l.17.36c4.13-3.89,9.09-9.28,10.18-10.08.24-.18.68.79-11.37-19.45A28.52,28.52,0,0,0,147.86,55c3.22,5.61,10.77,19.08,13.44,24.68,2.37,5,3.81,8-3.89,19.89-3.51.82-19.38,4.54-20.21,4.7l.17.35c1-.21,29-6.76,31-7.08a.2.2,0,0,0,.16-.19c0-1.52-.36-12.46-.66-21.29,6.45,2.06,12.88,1.77,19.38,0,.43,9.5.78,22,.41,27.13-.79,10.88,0,10.22-39.79,24.23l.16.34c39.25-13.81,39.21-13.46,39.95-23.89C188.61,95.72,187.74,75.68,187.27,68.13Zm-59.75-22a34,34,0,0,1,8.69-5.56l6,10.28a40.07,40.07,0,0,1-8.84,5.59C131.69,53.2,129.49,49.51,127.52,46.17Zm3.7,18.27c-1.44-2.42-2.69-4.54-3.5-5.93,3.32.57,15.45-6.51,16.61-9.57.87,1.43,2,3.4,3.33,5.67A28.15,28.15,0,0,1,131.22,64.44Zm53-5.22c0,.55.27,10.68.26,10.14a38.59,38.59,0,0,1-10.22.55,71.61,71.61,0,0,0-.15-10.5A34.33,34.33,0,0,0,184.18,59.22Zm-16.27,16.4c-.08-2.54-.16-4.89-.22-6.77,2.48,2,16.78,2.07,19.24-.09.11,1.91.24,4.27.35,6.86C180.26,77.57,173.91,77.56,167.91,75.62Z" style="fill: #b87eff"></path>
  </g></g></g></svg>